<svg width="133" height="48" viewBox="0 0 133 48" fill="none" xmlns="http://www.w3.org/2000/svg">
<g clip-path="url(#clip0_8058_2512)">
<mask id="mask0_8058_2512" style="mask-type:luminance" maskUnits="userSpaceOnUse" x="0" y="0" width="133" height="48">
<path d="M133 0H0V48H133V0Z" fill="white"/>
</mask>
<g mask="url(#mask0_8058_2512)">
<path d="M66.4186 12.5091C68.8148 11.6339 70.4681 9.94182 70.4681 7.25796C70.4681 3.11086 66.6652 1.32445 61.8379 1.32445H56.3433V27.1638H63.5295C68.9656 27.1638 73.6814 24.9695 73.6814 19.9864C73.6814 16.048 70.7348 13.3462 66.4186 12.5091ZM63.1873 25.7186H60.1462V2.77922H62.1407C65.7152 2.77922 66.9117 4.51159 66.9117 7.11704C66.9117 7.5504 67.2028 11.813 63.6899 12.5886C65.1381 12.9362 66.4808 13.6268 67.6045 14.6017C68.3028 15.2309 68.8508 16.0082 69.2081 16.8765C69.5654 17.7447 69.7229 18.6818 69.6691 19.6187C69.6691 23.2329 67.6736 25.725 63.1873 25.725" fill="white"/>
<path d="M1.80639 26.3019C3.66478 27.1821 5.69953 27.6296 7.75684 27.6104C11.1029 27.6104 17.0013 26.4121 17.0013 20.5559C17.0013 16.4501 14.0261 14.1424 9.12544 10.8281C6.86108 9.21868 3.77216 7.59544 3.77216 4.95291C3.77216 2.75539 5.80913 1.43942 8.63028 1.43942C10.6116 1.47668 12.5434 2.06373 14.2088 3.13471L12.8105 0.704089C11.49 0.200174 10.0829 -0.0389096 8.66959 0.000543539C4.92719 0.000543539 0.554667 1.57822 0.554667 6.02518C0.554667 9.54184 3.33225 11.5285 7.93429 14.8195C10.0711 16.3357 13.43 18.7398 13.43 21.6854C13.43 24.454 11.2634 26.1726 7.7749 26.1726C4.90355 26.0955 2.15107 25.0129 0 23.1148L1.80639 26.3019Z" fill="white"/>
<path d="M35.5255 27.6099C28.5943 27.6099 23.2134 22.1002 23.2134 14.2468C23.2134 6.58938 28.5943 0.883669 35.5255 0.883669C42.4567 0.883669 47.8217 6.58938 47.8217 14.2468C47.8217 22.0949 42.4578 27.6099 35.5255 27.6099ZM44.0198 14.2468C44.0198 7.25372 40.6195 2.32467 35.5255 2.32467C30.4315 2.32467 27.0312 7.25266 27.0312 14.2468C27.0312 21.2791 30.4315 26.1689 35.5255 26.1689C40.6195 26.1689 44.0198 21.278 44.0198 14.2468Z" fill="white"/>
<path d="M125.888 19.5806H115.887L112.769 27.1638H111.282L122.142 0.754404L133 27.1638H129.007L125.888 19.5806ZM116.477 18.1396H125.296L120.886 7.38934L116.477 18.1396Z" fill="white"/>
<path d="M100.172 1.33504V11.9465H86.2751V1.33504H82.4722V27.1649H86.2751V13.3907H100.172V27.1649H103.975V1.33504H100.172Z" fill="white"/>
<path d="M41.1943 48.0001H39.6567V40.1477H43.4289C45.2151 40.1477 46.114 41.0091 46.114 42.3727V42.7966C46.1202 43.2925 45.9522 43.775 45.6392 44.1605C45.3262 44.5459 44.8879 44.8101 44.4001 44.9072L46.419 47.9958H44.7189L42.8147 45.0365H41.1943V48.0001ZM41.1943 43.8614H43.0878C44.0919 43.8614 44.5754 43.4376 44.5754 42.7658V42.448C44.5754 41.7402 44.161 41.363 43.1441 41.363H41.1943V43.8614Z" fill="white"/>
<path d="M55.8926 40.1486V41.4201H51.4585V43.41H54.9118V44.6115H51.4585V46.7264H55.8926V47.9978H49.957V40.1486H55.8926Z" fill="white"/>
<path d="M63.9098 46.3598H60.4213L59.8103 48H58.2568L61.3436 40.0883H63.0438L66.1252 48H64.5229L63.9098 46.3598ZM60.8591 45.2049H63.4709L62.1714 41.7624H62.148L60.8591 45.2049Z" fill="white"/>
<path d="M70.9593 40.1486V46.6692H74.8973V48.001H69.4229V40.1486H70.9593Z" fill="white"/>
<path d="M83.3752 40.1486V41.4688H80.7039V48.0021H79.1652V41.4678H76.5088V40.1486H83.3752Z" fill="white"/>
<path d="M87.5376 40.1486L89.6182 43.6854L91.6753 40.1486H93.3425L90.3397 44.9993V48.0063H88.8032V44.9993L85.812 40.1529L87.5376 40.1486Z" fill="white"/>
</g>
</g>
<defs>
<clipPath id="clip0_8058_2512">
<rect width="133" height="48" fill="white"/>
</clipPath>
</defs>
</svg>
